<svg width="1200" height="630" viewBox="0 0 1200 630" xmlns="http://www.w3.org/2000/svg">
  <rect width="1200" height="630" fill="#ffffff"/>
  <rect x="0" y="0" width="1200" height="10" fill="#2563eb"/>
  <g transform="translate(80,64)">
    <g transform="scale(2)">
      <path d="M15 2H6a2 2 0 0 0-2 2v16a2 2 0 0 0 2 2h12a2 2 0 0 0 2-2V7Z" stroke="#2563eb" stroke-width="2" stroke-linecap="round" stroke-linejoin="round" fill="none"/>
      <path d="M14 2v4a2 2 0 0 0 2 2h4" stroke="#2563eb" stroke-width="2" stroke-linecap="round" stroke-linejoin="round" fill="none"/>
      <path d="M10 9H8" stroke="#2563eb" stroke-width="2" stroke-linecap="round" stroke-linejoin="round" fill="none"/>
      <path d="M16 13H8" stroke="#2563eb" stroke-width="2" stroke-linecap="round" stroke-linejoin="round" fill="none"/>
      <path d="M16 17H8" stroke="#2563eb" stroke-width="2" stroke-linecap="round" stroke-linejoin="round" fill="none"/>
    </g>
    <text x="58" y="34" font-family="Arial, Helvetica, sans-serif" font-size="30" font-weight="700" fill="#0f172a">PDFPilot</text>
  </g>
  <text x="80" y="330" font-family="Arial, Helvetica, sans-serif" font-size="76" font-weight="800" fill="#0f172a">{{TITLE}}</text>
  <rect x="82" y="352" width="120" height="6" fill="#2563eb"/>
  <text x="80" y="416" font-family="Arial, Helvetica, sans-serif" font-size="32" font-weight="400" fill="#475569">{{SUBTITLE}}</text>
</svg>
